<svg width="394" height="95" viewBox="0 0 394 95" fill="none" xmlns="http://www.w3.org/2000/svg">
<path d="M3.78545 40.5793H22.7126V90.9105H3.15454L3.78545 40.5793Z" fill="#342771"/>
<path d="M129.966 4.71851L155.203 29.8841L142.9 42.1523L117.664 16.6721L129.966 4.71851Z" fill="#342771"/>
<path d="M180.439 55.0496L205.675 79.9006L193.372 92.1688L168.452 67.6323L180.439 55.0496Z" fill="#342771"/>
<path d="M4.41638 7.23511H60.2515V60.0828H41.6398V25.1656H4.41638V7.23511Z" fill="#CE00D2"/>
<path d="M79.8096 6.92053V90.9106H99.0522V6.60596C99.0522 6.60596 80.125 6.92053 79.8096 6.92053Z" fill="#342771"/>
<path d="M243.529 6.60596H224.287V90.2815H243.529V6.60596Z" fill="#342771"/>
<path d="M320.184 7.23511H264.034V90.9106H318.922V75.1821H280.753V58.5099H318.922V40.2649H282.014V23.5927H319.869L320.184 7.23511Z" fill="#342771"/>
<path d="M390.215 40.2649H352.991L353.307 23.5927H391.161V7.23511H336.272V58.8245H374.442V74.2384H336.272V90.9106H390.53L390.215 40.2649Z" fill="#342771"/>
<path d="M193.372 4.71851L118.295 79.5861L131.228 92.4834L206.306 17.6159L193.372 4.71851Z" fill="#CE00D2"/>
</svg>
