<svg width="24" height="24" viewBox="0 0 24 24" fill="none" xmlns="http://www.w3.org/2000/svg">
<g id="chest">
<g id="Outline">
<path id="Vector" d="M11.3 18.5335H5.7C5.63812 18.5335 5.57877 18.5089 5.53501 18.4652C5.49125 18.4214 5.46667 18.3621 5.46667 18.3002V12.7002C5.46759 11.896 5.78747 11.125 6.35613 10.5563C6.92479 9.98767 7.69579 9.66779 8.5 9.66686H10.6C10.6619 9.66686 10.7212 9.64228 10.765 9.59852C10.8088 9.55476 10.8333 9.49541 10.8333 9.43353C10.8333 9.37164 10.8088 9.3123 10.765 9.26854C10.7212 9.22478 10.6619 9.2002 10.6 9.2002H8.5C7.57206 9.20125 6.68244 9.57033 6.02629 10.2265C5.37014 10.8826 5.00105 11.7723 5 12.7002V18.3002C5 18.4858 5.07375 18.6639 5.20503 18.7952C5.3363 18.9264 5.51435 19.0002 5.7 19.0002H11.3C11.3619 19.0002 11.4212 18.9756 11.465 18.9319C11.5088 18.8881 11.5333 18.8287 11.5333 18.7669C11.5333 18.705 11.5088 18.6456 11.465 18.6019C11.4212 18.5581 11.3619 18.5335 11.3 18.5335Z" fill="black"/>
<path id="Vector_2" d="M12.9333 17.8331C12.9333 17.895 12.9579 17.9543 13.0017 17.9981C13.0454 18.0419 13.1048 18.0664 13.1667 18.0664H17.8333C17.8952 18.0664 17.9546 18.0419 17.9983 17.9981C18.0421 17.9543 18.0667 17.895 18.0667 17.8331V13.1664C18.0667 13.1046 18.0421 13.0452 17.9983 13.0014C17.9546 12.9577 17.8952 12.9331 17.8333 12.9331H13.1667C13.1048 12.9331 13.0454 12.9577 13.0017 13.0014C12.9579 13.0452 12.9333 13.1046 12.9333 13.1664V17.8331ZM17.6 15.7331H14.1C14.0381 15.7331 13.9788 15.7577 13.935 15.8014C13.8912 15.8452 13.8667 15.9046 13.8667 15.9664C13.8667 16.0283 13.8912 16.0877 13.935 16.1314C13.9788 16.1752 14.0381 16.1998 14.1 16.1998H17.6V16.6664H13.4V15.2664H17.6V15.7331ZM13.4 17.5998V17.1331H17.6V17.5998H13.4ZM17.6 13.3998V14.7998H13.4V14.3331H16.9C16.9619 14.3331 17.0212 14.3085 17.065 14.2648C17.1087 14.221 17.1333 14.1617 17.1333 14.0998C17.1333 14.0379 17.1087 13.9785 17.065 13.9348C17.0212 13.891 16.9619 13.8664 16.9 13.8664H13.4V13.3998H17.6Z" fill="black"/>
<path id="Vector_3" d="M15.5 9.2002H11.5333C11.4714 9.2002 11.4121 9.22478 11.3683 9.26854C11.3246 9.3123 11.3 9.37164 11.3 9.43353C11.3 9.49541 11.3246 9.55476 11.3683 9.59852C11.4121 9.64228 11.4714 9.66686 11.5333 9.66686H13.7612C13.5335 9.79831 13.3212 9.95484 13.1284 10.1335H8.49999C7.90875 10.135 7.33603 10.3398 6.87806 10.7138C6.42009 11.0877 6.10478 11.6079 5.98512 12.1869C5.97821 12.2207 5.9789 12.2557 5.98716 12.2893C5.99542 12.3228 6.01103 12.3541 6.03287 12.3809C6.0547 12.4077 6.08222 12.4293 6.11343 12.4442C6.14463 12.4591 6.17875 12.4668 6.21332 12.4669H11.3373C11.3992 12.4669 11.4586 12.4423 11.5023 12.3985C11.5461 12.3548 11.5707 12.2954 11.5707 12.2335C11.5707 12.1716 11.5461 12.1123 11.5023 12.0685C11.4586 12.0248 11.3992 12.0002 11.3373 12.0002H6.51992C6.66574 11.5914 6.93416 11.2376 7.28853 10.987C7.64291 10.7365 8.06598 10.6014 8.49999 10.6002H12.7065C12.5945 10.7476 12.4943 10.9036 12.4069 11.0669H8.03612C7.97424 11.0669 7.91489 11.0914 7.87113 11.1352C7.82737 11.179 7.80279 11.2383 7.80279 11.3002C7.80279 11.3621 7.82737 11.4214 7.87113 11.4652C7.91489 11.5089 7.97424 11.5335 8.03612 11.5335H12.2042C12.0699 11.9079 12.0009 12.3025 12 12.7002V12.9335H6.16665C6.10477 12.9335 6.04542 12.9581 6.00166 13.0019C5.9579 13.0456 5.93332 13.105 5.93332 13.1669V17.8335C5.93332 17.8954 5.9579 17.9548 6.00166 17.9985C6.04542 18.0423 6.10477 18.0669 6.16665 18.0669H12V18.3002C12 18.4858 12.0737 18.6639 12.205 18.7952C12.3363 18.9264 12.5143 19.0002 12.7 19.0002H18.3C18.4856 19.0002 18.6637 18.9264 18.795 18.7952C18.9262 18.6639 19 18.4858 19 18.3002V15.2669C19 15.205 18.9754 15.1456 18.9316 15.1019C18.8879 15.0581 18.8285 15.0335 18.7667 15.0335C18.7048 15.0335 18.6454 15.0581 18.6017 15.1019C18.5579 15.1456 18.5333 15.205 18.5333 15.2669V18.3002C18.5333 18.3621 18.5087 18.4214 18.465 18.4652C18.4212 18.5089 18.3619 18.5335 18.3 18.5335H12.7C12.6381 18.5335 12.5788 18.5089 12.535 18.4652C12.4912 18.4214 12.4667 18.3621 12.4667 18.3002V12.7002C12.4667 11.8957 12.7862 11.1242 13.3551 10.5553C13.924 9.98644 14.6955 9.66686 15.5 9.66686C16.3045 9.66686 17.076 9.98644 17.6449 10.5553C18.2137 11.1242 18.5333 11.8957 18.5333 12.7002V14.3335C18.5333 14.3954 18.5579 14.4548 18.6017 14.4985C18.6454 14.5423 18.7048 14.5669 18.7667 14.5669C18.8285 14.5669 18.8879 14.5423 18.9316 14.4985C18.9754 14.4548 19 14.3954 19 14.3335V12.7002C18.9989 11.7723 18.6298 10.8826 17.9737 10.2265C17.3175 9.57033 16.4279 9.20125 15.5 9.2002ZM12 13.8669H11.5333C11.4714 13.8669 11.4121 13.8914 11.3683 13.9352C11.3246 13.979 11.3 14.0383 11.3 14.1002C11.3 14.1621 11.3246 14.2214 11.3683 14.2652C11.4121 14.3089 11.4714 14.3335 11.5333 14.3335H12V14.8002H10.8333V13.4002H12V13.8669ZM10.3667 13.4002V15.5002C10.3667 15.5621 10.3421 15.6214 10.2983 15.6652C10.2546 15.7089 10.1952 15.7335 10.1333 15.7335H8.26665C8.20477 15.7335 8.14542 15.7089 8.10166 15.6652C8.0579 15.6214 8.03332 15.5621 8.03332 15.5002V13.4002H10.3667ZM6.39999 15.2669H6.86665C6.92854 15.2669 6.98789 15.2423 7.03164 15.1985C7.0754 15.1548 7.09999 15.0954 7.09999 15.0335C7.09999 14.9716 7.0754 14.9123 7.03164 14.8685C6.98789 14.8248 6.92854 14.8002 6.86665 14.8002H6.39999V14.3335H7.56665V15.5002C7.56743 15.5799 7.58195 15.6588 7.60959 15.7335H6.39999V15.2669ZM7.56665 13.4002V13.8669H6.39999V13.4002H7.56665ZM6.39999 17.6002V16.2002H10.1333C10.319 16.2002 10.497 16.1264 10.6283 15.9952C10.7596 15.8639 10.8333 15.6858 10.8333 15.5002V15.2669H12V15.7335H11.5333C11.4714 15.7335 11.4121 15.7581 11.3683 15.8019C11.3246 15.8456 11.3 15.905 11.3 15.9669C11.3 16.0287 11.3246 16.0881 11.3683 16.1319C11.4121 16.1756 11.4714 16.2002 11.5333 16.2002H12V16.6669H7.09999C7.0381 16.6669 6.97875 16.6914 6.93499 16.7352C6.89124 16.779 6.86665 16.8383 6.86665 16.9002C6.86665 16.9621 6.89124 17.0214 6.93499 17.0652C6.97875 17.1089 7.0381 17.1335 7.09999 17.1335H12V17.6002H6.39999Z" fill="black"/>
<path id="Vector_4" d="M16.1999 12.0003C16.138 12.0003 16.0787 12.0248 16.0349 12.0686C15.9912 12.1124 15.9666 12.1717 15.9666 12.2336C15.9666 12.2955 15.9912 12.3548 16.0349 12.3986C16.0787 12.4423 16.138 12.4669 16.1999 12.4669H17.7866C17.8212 12.4669 17.8553 12.4592 17.8866 12.4443C17.9178 12.4295 17.9453 12.4079 17.9672 12.3811C17.9891 12.3543 18.0047 12.323 18.013 12.2894C18.0212 12.2558 18.0219 12.2208 18.015 12.1869C17.8968 11.6072 17.5819 11.0861 17.1236 10.7119C16.6653 10.3377 16.0918 10.1333 15.5002 10.1333C14.9085 10.1333 14.335 10.3377 13.8768 10.7119C13.4185 11.0861 13.1036 11.6072 12.9853 12.1869C12.9784 12.2208 12.9791 12.2557 12.9873 12.2893C12.9956 12.3228 13.0112 12.3541 13.033 12.3809C13.0548 12.4077 13.0823 12.4293 13.1135 12.4442C13.1446 12.4591 13.1787 12.4668 13.2133 12.4669H15.2666C15.3285 12.4669 15.3878 12.4423 15.4316 12.3986C15.4754 12.3548 15.4999 12.2955 15.4999 12.2336C15.4999 12.1717 15.4754 12.1124 15.4316 12.0686C15.3878 12.0248 15.3285 12.0003 15.2666 12.0003H13.5199C13.5786 11.8354 13.6579 11.6786 13.756 11.5336H17.2439C17.3419 11.6786 17.4213 11.8354 17.48 12.0003H16.1999ZM16.8155 11.0669H14.1844C14.5564 10.765 15.0209 10.6003 15.4999 10.6003C15.979 10.6003 16.4435 10.765 16.8155 11.0669Z" fill="black"/>
<path id="Vector_5" d="M9.2 15.2667C9.33845 15.2667 9.47378 15.2256 9.5889 15.1487C9.70401 15.0718 9.79373 14.9625 9.84672 14.8346C9.8997 14.7067 9.91356 14.5659 9.88655 14.4301C9.85954 14.2944 9.79287 14.1696 9.69497 14.0717C9.59708 13.9738 9.47235 13.9072 9.33656 13.8801C9.20078 13.8531 9.06003 13.867 8.93212 13.92C8.80421 13.973 8.69489 14.0627 8.61797 14.1778C8.54105 14.2929 8.5 14.4283 8.5 14.5667C8.5 14.7524 8.57375 14.9304 8.70503 15.0617C8.8363 15.193 9.01435 15.2667 9.2 15.2667ZM9.2 14.3334C9.24615 14.3334 9.29126 14.3471 9.32963 14.3727C9.368 14.3983 9.39791 14.4348 9.41557 14.4774C9.43323 14.52 9.43785 14.567 9.42885 14.6122C9.41985 14.6575 9.39762 14.6991 9.36499 14.7317C9.33236 14.7643 9.29078 14.7865 9.24552 14.7956C9.20026 14.8046 9.15334 14.7999 9.11071 14.7823C9.06807 14.7646 9.03163 14.7347 9.00599 14.6963C8.98035 14.658 8.96667 14.6128 8.96667 14.5667C8.96667 14.5048 8.99125 14.4455 9.03501 14.4017C9.07877 14.3579 9.13812 14.3334 9.2 14.3334Z" fill="black"/>
<path id="Vector_6" d="M16.9 8.2667C17.0856 8.2667 17.2637 8.34045 17.395 8.47172C17.5262 8.603 17.6 8.78105 17.6 8.9667C17.6 9.02858 17.6246 9.08793 17.6683 9.13169C17.7121 9.17545 17.7714 9.20003 17.8333 9.20003C17.8952 9.20003 17.9546 9.17545 17.9983 9.13169C18.0421 9.08793 18.0667 9.02858 18.0667 8.9667C18.0667 8.78105 18.1404 8.603 18.2717 8.47172C18.403 8.34045 18.581 8.2667 18.7667 8.2667C18.8285 8.2667 18.8879 8.24212 18.9316 8.19836C18.9754 8.1546 19 8.09525 19 8.03337C19 7.97148 18.9754 7.91213 18.9316 7.86837C18.8879 7.82462 18.8285 7.80003 18.7667 7.80003C18.581 7.80003 18.403 7.72628 18.2717 7.59501C18.1404 7.46373 18.0667 7.28568 18.0667 7.10003C18.0667 7.03815 18.0421 6.9788 17.9983 6.93504C17.9546 6.89128 17.8952 6.8667 17.8333 6.8667C17.7714 6.8667 17.7121 6.89128 17.6683 6.93504C17.6246 6.9788 17.6 7.03815 17.6 7.10003C17.6 7.28568 17.5262 7.46373 17.395 7.59501C17.2637 7.72628 17.0856 7.80003 16.9 7.80003C16.8381 7.80003 16.7788 7.82462 16.735 7.86837C16.6912 7.91213 16.6667 7.97148 16.6667 8.03337C16.6667 8.09525 16.6912 8.1546 16.735 8.19836C16.7788 8.24212 16.8381 8.2667 16.9 8.2667ZM17.8333 7.80003C17.8998 7.88838 17.9783 7.96693 18.0667 8.03337C17.9783 8.0998 17.8998 8.17835 17.8333 8.2667C17.7669 8.17835 17.6883 8.0998 17.6 8.03337C17.6883 7.96693 17.7669 7.88838 17.8333 7.80003Z" fill="black"/>
<path id="Vector_7" d="M11.0667 7.7999C11.2523 7.7999 11.4304 7.87365 11.5617 8.00493C11.6929 8.1362 11.7667 8.31425 11.7667 8.4999C11.7667 8.56179 11.7913 8.62114 11.835 8.66489C11.8788 8.70865 11.9381 8.73324 12 8.73324C12.0619 8.73324 12.1212 8.70865 12.165 8.66489C12.2088 8.62114 12.2333 8.56179 12.2333 8.4999C12.2333 8.31425 12.3071 8.1362 12.4384 8.00493C12.5696 7.87365 12.7477 7.7999 12.9333 7.7999C12.9952 7.7999 13.0546 7.77532 13.0983 7.73156C13.1421 7.6878 13.1667 7.62845 13.1667 7.56657C13.1667 7.50469 13.1421 7.44534 13.0983 7.40158C13.0546 7.35782 12.9952 7.33324 12.9333 7.33324C12.7477 7.33324 12.5696 7.25949 12.4384 7.12821C12.3071 6.99694 12.2333 6.81889 12.2333 6.63324C12.2333 6.57135 12.2088 6.512 12.165 6.46824C12.1212 6.42449 12.0619 6.3999 12 6.3999C11.9381 6.3999 11.8788 6.42449 11.835 6.46824C11.7913 6.512 11.7667 6.57135 11.7667 6.63324C11.7667 6.81889 11.6929 6.99694 11.5617 7.12821C11.4304 7.25949 11.2523 7.33324 11.0667 7.33324C11.0048 7.33324 10.9454 7.35782 10.9017 7.40158C10.8579 7.44534 10.8333 7.50469 10.8333 7.56657C10.8333 7.62845 10.8579 7.6878 10.9017 7.73156C10.9454 7.77532 11.0048 7.7999 11.0667 7.7999ZM12 7.33324C12.0664 7.42159 12.145 7.50014 12.2333 7.56657C12.145 7.633 12.0664 7.71155 12 7.7999C11.9336 7.71155 11.855 7.633 11.7667 7.56657C11.855 7.50014 11.9336 7.42159 12 7.33324Z" fill="black"/>
<path id="Vector_8" d="M7.56668 6.4C7.75233 6.4 7.93038 6.47375 8.06165 6.60503C8.19293 6.7363 8.26668 6.91435 8.26668 7.1C8.26668 7.16188 8.29126 7.22123 8.33502 7.26499C8.37878 7.30875 8.43813 7.33333 8.50001 7.33333C8.56189 7.33333 8.62124 7.30875 8.665 7.26499C8.70876 7.22123 8.73334 7.16188 8.73334 7.1C8.73334 6.91435 8.80709 6.7363 8.93837 6.60503C9.06964 6.47375 9.24769 6.4 9.43334 6.4C9.49523 6.4 9.55458 6.37542 9.59834 6.33166C9.64209 6.2879 9.66668 6.22855 9.66668 6.16667C9.66668 6.10478 9.64209 6.04543 9.59834 6.00168C9.55458 5.95792 9.49523 5.93333 9.43334 5.93333C9.24769 5.93333 9.06964 5.85958 8.93837 5.72831C8.80709 5.59703 8.73334 5.41898 8.73334 5.23333C8.73334 5.17145 8.70876 5.1121 8.665 5.06834C8.62124 5.02458 8.56189 5 8.50001 5C8.43813 5 8.37878 5.02458 8.33502 5.06834C8.29126 5.1121 8.26668 5.17145 8.26668 5.23333C8.26668 5.41898 8.19293 5.59703 8.06165 5.72831C7.93038 5.85958 7.75233 5.93333 7.56668 5.93333C7.50479 5.93333 7.44544 5.95792 7.40169 6.00168C7.35793 6.04543 7.33334 6.10478 7.33334 6.16667C7.33334 6.22855 7.35793 6.2879 7.40169 6.33166C7.44544 6.37542 7.50479 6.4 7.56668 6.4ZM8.50001 5.93333C8.56644 6.02168 8.64499 6.10023 8.73334 6.16667C8.64499 6.2331 8.56644 6.31165 8.50001 6.4C8.43358 6.31165 8.35503 6.2331 8.26668 6.16667C8.35503 6.10023 8.43358 6.02168 8.50001 5.93333Z" fill="black"/>
<path id="Vector_9" d="M17.6 5.93333H17.8333V6.16667C17.8333 6.22855 17.8579 6.2879 17.9017 6.33166C17.9454 6.37542 18.0048 6.4 18.0667 6.4C18.1286 6.4 18.1879 6.37542 18.2317 6.33166C18.2754 6.2879 18.3 6.22855 18.3 6.16667V5.93333H18.5333C18.5952 5.93333 18.6546 5.90875 18.6983 5.86499C18.7421 5.82123 18.7667 5.76188 18.7667 5.7C18.7667 5.63812 18.7421 5.57877 18.6983 5.53501C18.6546 5.49125 18.5952 5.46667 18.5333 5.46667H18.3V5.23333C18.3 5.17145 18.2754 5.1121 18.2317 5.06834C18.1879 5.02458 18.1286 5 18.0667 5C18.0048 5 17.9454 5.02458 17.9017 5.06834C17.8579 5.1121 17.8333 5.17145 17.8333 5.23333V5.46667H17.6C17.5381 5.46667 17.4788 5.49125 17.435 5.53501C17.3913 5.57877 17.3667 5.63812 17.3667 5.7C17.3667 5.76188 17.3913 5.82123 17.435 5.86499C17.4788 5.90875 17.5381 5.93333 17.6 5.93333Z" fill="black"/>
<path id="Vector_10" d="M13.4 6.40013H13.6333V6.63346C13.6333 6.69535 13.6579 6.7547 13.7017 6.79846C13.7454 6.84221 13.8048 6.8668 13.8667 6.8668C13.9285 6.8668 13.9879 6.84221 14.0316 6.79846C14.0754 6.7547 14.1 6.69535 14.1 6.63346V6.40013H14.3333C14.3952 6.40013 14.4546 6.37555 14.4983 6.33179C14.5421 6.28803 14.5667 6.22868 14.5667 6.1668C14.5667 6.10491 14.5421 6.04556 14.4983 6.00181C14.4546 5.95805 14.3952 5.93346 14.3333 5.93346H14.1V5.70013C14.1 5.63825 14.0754 5.5789 14.0316 5.53514C13.9879 5.49138 13.9285 5.4668 13.8667 5.4668C13.8048 5.4668 13.7454 5.49138 13.7017 5.53514C13.6579 5.5789 13.6333 5.63825 13.6333 5.70013V5.93346H13.4C13.3381 5.93346 13.2788 5.95805 13.235 6.00181C13.1912 6.04556 13.1667 6.10491 13.1667 6.1668C13.1667 6.22868 13.1912 6.28803 13.235 6.33179C13.2788 6.37555 13.3381 6.40013 13.4 6.40013Z" fill="black"/>
<path id="Vector_11" d="M5.70001 8.73314H5.93334V8.96647C5.93334 9.02836 5.95792 9.0877 6.00168 9.13146C6.04544 9.17522 6.10479 9.1998 6.16667 9.1998C6.22856 9.1998 6.28791 9.17522 6.33167 9.13146C6.37542 9.0877 6.40001 9.02836 6.40001 8.96647V8.73314H6.63334C6.69523 8.73314 6.75457 8.70855 6.79833 8.6648C6.84209 8.62104 6.86667 8.56169 6.86667 8.4998C6.86667 8.43792 6.84209 8.37857 6.79833 8.33481C6.75457 8.29105 6.69523 8.26647 6.63334 8.26647H6.40001V8.03314C6.40001 7.97125 6.37542 7.9119 6.33167 7.86815C6.28791 7.82439 6.22856 7.7998 6.16667 7.7998C6.10479 7.7998 6.04544 7.82439 6.00168 7.86815C5.95792 7.9119 5.93334 7.97125 5.93334 8.03314V8.26647H5.70001C5.63812 8.26647 5.57878 8.29105 5.53502 8.33481C5.49126 8.37857 5.46667 8.43792 5.46667 8.4998C5.46667 8.56169 5.49126 8.62104 5.53502 8.6648C5.57878 8.70855 5.63812 8.73314 5.70001 8.73314Z" fill="black"/>
<path id="Vector_12" d="M15.9667 6.39977C16.0955 6.39977 16.2 6.29531 16.2 6.16644C16.2 6.03757 16.0955 5.93311 15.9667 5.93311C15.8378 5.93311 15.7333 6.03757 15.7333 6.16644C15.7333 6.29531 15.8378 6.39977 15.9667 6.39977Z" fill="black"/>
<path id="Vector_13" d="M15.0333 8.49987C15.1622 8.49987 15.2667 8.3954 15.2667 8.26654C15.2667 8.13767 15.1622 8.0332 15.0333 8.0332C14.9045 8.0332 14.8 8.13767 14.8 8.26654C14.8 8.3954 14.9045 8.49987 15.0333 8.49987Z" fill="black"/>
<path id="Vector_14" d="M9.66665 8.49987C9.79552 8.49987 9.89999 8.3954 9.89999 8.26654C9.89999 8.13767 9.79552 8.0332 9.66665 8.0332C9.53779 8.0332 9.43332 8.13767 9.43332 8.26654C9.43332 8.3954 9.53779 8.49987 9.66665 8.49987Z" fill="black"/>
<path id="Vector_15" d="M5.93335 6.39977C6.06221 6.39977 6.16668 6.29531 6.16668 6.16644C6.16668 6.03757 6.06221 5.93311 5.93335 5.93311C5.80448 5.93311 5.70001 6.03757 5.70001 6.16644C5.70001 6.29531 5.80448 6.39977 5.93335 6.39977Z" fill="black"/>
</g>
</g>
</svg>
