<svg width="24" height="24" viewBox="0 0 24 24" fill="none" xmlns="http://www.w3.org/2000/svg">
<g id="cutlery">
<g id="Group 12">
<path id="Vector" d="M9.84398 5C9.34144 5 8.86696 5.37915 8.5079 6.06758C8.18511 6.68647 8 7.47575 8 8.23306C8 9.00784 8.37837 9.71309 8.98744 10.0736C9.19696 10.1976 9.32041 10.4283 9.30962 10.6756L9.25894 11.8384C9.25399 11.9519 9.33624 12.0481 9.44264 12.0534C9.54919 12.0579 9.63931 11.971 9.64426 11.8575L9.69493 10.6947C9.71258 10.2902 9.51321 9.91439 9.17467 9.71402C8.68806 9.42598 8.38575 8.85852 8.38575 8.23306C8.38575 7.54356 8.55316 6.82713 8.84503 6.26746C9.12882 5.72335 9.4929 5.41128 9.84398 5.41128C10.1951 5.41128 10.5592 5.72335 10.8429 6.26746C11.1348 6.82713 11.3022 7.54356 11.3022 8.23306C11.3022 8.85852 10.9999 9.42598 10.5133 9.71402C10.1748 9.91439 9.97541 10.2902 9.99303 10.6947L10.3142 18.0635C10.3202 18.2018 10.2742 18.3332 10.1845 18.4334C10.0948 18.5335 9.97385 18.5887 9.84396 18.5887C9.71404 18.5887 9.59312 18.5335 9.50344 18.4334C9.41376 18.3332 9.36768 18.2018 9.3737 18.0635L9.60838 12.6793C9.61333 12.5658 9.53109 12.4696 9.42469 12.4643C9.31864 12.4599 9.22801 12.5467 9.22309 12.6602L8.98841 18.0444C8.97744 18.2961 9.06124 18.5351 9.22442 18.7173C9.3876 18.8996 9.60761 19 9.84396 19C10.0803 19 10.3003 18.8996 10.4635 18.7173C10.6267 18.5351 10.7105 18.2961 10.6995 18.0444L10.3783 10.6756C10.3676 10.4283 10.491 10.1976 10.7005 10.0736C11.3096 9.71311 11.6879 9.00784 11.6879 8.23306C11.6879 7.47578 11.5028 6.68647 11.18 6.06758C10.821 5.37915 10.3465 5 9.84398 5V5Z" fill="black"/>
<path id="Vector_2" d="M15.0832 10.0821C15.6738 9.73786 16.0327 9.05282 15.9976 8.33683L15.859 5.51001C15.845 5.22403 15.6236 5 15.355 5C15.218 5 15.0899 5.0575 14.9941 5.1619C14.8984 5.26635 14.8473 5.40428 14.8504 5.55032L14.9024 7.99692C14.9032 8.03454 14.8855 8.05953 14.8749 8.07107C14.8644 8.08261 14.8413 8.102 14.806 8.102C14.7534 8.102 14.7102 8.05636 14.7097 8.00028L14.6859 5.48379C14.6833 5.21705 14.4777 5 14.2275 5C13.9773 5 13.7717 5.21705 13.7691 5.48382L13.7454 8.00028C13.7448 8.05636 13.7016 8.102 13.649 8.102C13.6137 8.102 13.5907 8.08261 13.5801 8.07107C13.5695 8.05953 13.5519 8.03454 13.5527 7.99694L13.6049 5.53635C13.6079 5.39399 13.5582 5.2596 13.4649 5.1578C13.3715 5.05603 13.2466 5 13.1131 5C12.8514 5 12.6356 5.21837 12.6219 5.49708L12.4826 8.33683C12.447 9.06318 12.7973 9.73231 13.3967 10.0831C13.5951 10.1991 13.7163 10.4347 13.7054 10.6833L13.5154 15.0426C13.5105 15.1561 13.5927 15.2523 13.6991 15.2576C13.806 15.2624 13.8958 15.1752 13.9007 15.0617L14.0908 10.7024C14.1084 10.2982 13.9088 9.91357 13.5823 9.72249C13.1138 9.44837 12.84 8.92562 12.8679 8.35829L13.0071 5.51854C13.01 5.45839 13.0566 5.41125 13.1131 5.41125C13.152 5.41125 13.1774 5.43258 13.1891 5.44529C13.2007 5.45803 13.2202 5.48557 13.2193 5.52702L13.1671 7.98759C13.1641 8.12707 13.2128 8.25881 13.3043 8.35856C13.3957 8.45834 13.5181 8.51327 13.649 8.51327C13.9122 8.51327 14.1284 8.28498 14.1311 8.00441L14.1549 5.48795C14.1552 5.44567 14.1878 5.41128 14.2275 5.41128C14.2672 5.41128 14.2998 5.44567 14.3002 5.48795L14.324 8.00441C14.3266 8.28498 14.5428 8.51327 14.806 8.51327C14.9368 8.51327 15.0593 8.45834 15.1507 8.35859C15.2422 8.25881 15.291 8.1271 15.288 7.98762L15.236 5.54102C15.2353 5.5066 15.2473 5.47406 15.2699 5.44945C15.2925 5.42481 15.3227 5.41128 15.355 5.41128C15.4183 5.41128 15.4705 5.46408 15.4738 5.53151L15.6124 8.35832C15.6403 8.926 15.3666 9.44824 14.8982 9.72126C14.5715 9.91168 14.3718 10.2958 14.3894 10.6999L14.7104 18.0635C14.7165 18.2035 14.6693 18.3361 14.5776 18.4367C14.4859 18.5372 14.3637 18.592 14.2311 18.5886C14.1065 18.5861 13.99 18.5302 13.9029 18.4311C13.8127 18.3285 13.7644 18.1889 13.7705 18.0482L13.8648 15.886C13.8697 15.7726 13.7875 15.6764 13.6811 15.6711C13.5737 15.666 13.4844 15.7535 13.4795 15.8669L13.3852 18.0292C13.3743 18.2801 13.4604 18.5291 13.6214 18.7124C13.7803 18.8932 13.9943 18.9952 14.2239 18.9998C14.2292 18.9999 14.2344 18.9999 14.2396 18.9999C14.4701 18.9999 14.6934 18.8997 14.8541 18.7234C15.0186 18.5431 15.1066 18.2956 15.0957 18.0443L14.7747 10.6809C14.7639 10.4327 14.885 10.1977 15.0832 10.0821Z" fill="black"/>
</g>
</g>
</svg>
