<svg width="24" height="24" viewBox="0 0 24 24" fill="none" xmlns="http://www.w3.org/2000/svg">
<g id="el:shopping-cart">
<path id="Vector" d="M18.9931 9.61315L18.406 13.1206C18.3336 13.508 18.0371 13.7436 17.6953 13.748H9.13592L8.96599 14.7455H17.1236C17.5532 14.7795 17.8445 15.0964 17.8498 15.5017C17.8185 15.9481 17.5143 16.2523 17.1236 16.2579H8.10078C7.61279 16.2122 7.32182 15.8071 7.37462 15.3569L7.76087 13.1688L7.17377 7.02278L5.50516 6.47579C5.0974 6.3072 4.93098 5.92307 5.02621 5.52654C5.18456 5.11329 5.564 4.92448 5.93776 5.02779L8.06987 5.7357C8.3571 5.84783 8.52234 6.09267 8.56427 6.37927L8.68787 7.60203L18.3596 8.72825C18.804 8.82849 19.0452 9.19505 18.9931 9.61315ZM10.3116 17.8456C10.3116 18.4832 9.8153 19 9.20305 19C8.59082 19 8.09452 18.4832 8.09452 17.8456C8.09452 17.2081 8.59083 16.6912 9.20305 16.6912C9.81529 16.6912 10.3116 17.2081 10.3116 17.8456ZM16.9295 17.8456C16.9295 18.4832 16.4332 19 15.821 19C15.2088 19 14.7125 18.4832 14.7125 17.8456C14.7125 17.2081 15.2088 16.6912 15.821 16.6912C16.4332 16.6912 16.9295 17.2081 16.9295 17.8456Z" fill="black"/>
</g>
</svg>
