<svg width="24" height="24" viewBox="0 0 24 24" fill="none" xmlns="http://www.w3.org/2000/svg">
<g id="first-aid-kit">
<g id="Group 10">
<g id="Group">
<g id="Group_2">
<path id="Vector" d="M14.4515 11.5883C14.4505 11.5883 14.4496 11.5883 14.4486 11.5883H13.2762V10.4241C13.2778 10.1893 13.0869 9.99766 12.8498 9.99609C12.8489 9.99609 12.8479 9.99609 12.847 9.99609H11.1531C10.9161 9.99609 10.7239 10.1865 10.7239 10.4213V11.5855H9.55148C9.31444 11.5839 9.12097 11.773 9.11938 12.0078C9.11938 12.0097 9.11938 12.0116 9.11938 12.0135V13.6885C9.11938 13.9233 9.31156 14.1137 9.5486 14.1137H10.7239V15.275C10.7223 15.5098 10.9132 15.7015 11.1502 15.703C11.1512 15.703 11.1522 15.703 11.1531 15.703H12.8441C13.0811 15.703 13.2733 15.5127 13.2733 15.2779V14.1137H14.4486C14.6856 14.1152 14.8791 13.9261 14.8807 13.6913C14.8807 13.6904 14.8807 13.6894 14.8807 13.6885V12.0135C14.8807 11.7787 14.6886 11.5883 14.4515 11.5883ZM14.3046 13.543H12.9881C12.829 13.543 12.7 13.6707 12.7 13.8283V15.1323H11.3V13.8283C11.3 13.6707 11.1711 13.543 11.012 13.543H9.69552V12.159H11.012C11.1711 12.159 11.3 12.0313 11.3 11.8737V10.5668H12.6972V11.8708C12.6972 12.0284 12.8261 12.1562 12.9852 12.1562H14.3046V13.543Z" fill="black"/>
</g>
</g>
<g id="Group_3">
<g id="Group_4">
<path id="Vector_2" d="M17.0123 7.86161H14.6387V6.85719C14.6536 6.39885 14.2906 6.01527 13.8279 6.00047C13.8043 5.99972 13.7808 5.99993 13.7572 6.00115H10.2428C9.78045 5.97728 9.38613 6.32919 9.362 6.78713C9.36078 6.81046 9.36053 6.83382 9.36132 6.85719V7.8559H6.98765C6.0716 7.8559 5 8.37238 5 9.8248V16.0311C5 17.4835 6.0716 18 6.98765 18H17.0123C17.9284 18 19 17.4835 19 16.0311V9.83051C19 8.37809 17.9313 7.86161 17.0123 7.86161ZM9.93745 6.85719C9.93745 6.77444 9.93745 6.55187 10.2457 6.55187H13.7572C14.0654 6.55187 14.0654 6.77158 14.0654 6.85719V7.8559H9.93745V6.85719ZM18.4239 16.0311C18.4239 17.2923 17.4387 17.4293 17.0123 17.4293H6.98765C6.5642 17.4293 5.57613 17.2923 5.57613 16.0311V9.83051C5.57613 8.56927 6.56132 8.4323 6.98765 8.4323H17.0123C17.4358 8.4323 18.4239 8.56927 18.4239 9.83051V16.0311Z" fill="black"/>
</g>
</g>
</g>
</g>
</svg>
