<svg width="24" height="24" viewBox="0 0 24 24" fill="none" xmlns="http://www.w3.org/2000/svg">
<g id="happy">
<g id="Group 9">
<path id="Vector" d="M16.9498 7.05025C15.6276 5.72813 13.8697 5 12 5C10.5774 5 9.20752 5.42479 8.03879 6.22833C7.91435 6.314 7.88284 6.48415 7.9684 6.60858C8.05396 6.73312 8.22421 6.76463 8.34865 6.67897C9.42584 5.93834 10.6885 5.54688 12 5.54688C15.5582 5.54688 18.4531 8.44179 18.4531 12C18.4531 15.5582 15.5582 18.4531 12 18.4531C8.44179 18.4531 5.54688 15.5582 5.54688 12C5.54688 10.6882 5.93834 9.42574 6.67886 8.34875C6.76442 8.22432 6.73291 8.05417 6.60847 7.96861C6.48415 7.88306 6.31389 7.91446 6.22823 8.03889C5.42468 9.20741 5 10.5772 5 12C5 13.8697 5.72813 15.6276 7.05025 16.9498C8.37236 18.2719 10.1303 19 12 19C13.8697 19 15.6276 18.2719 16.9498 16.9498C18.2719 15.6276 19 13.8697 19 12C19 10.1303 18.2719 8.37236 16.9498 7.05025Z" fill="#342771"/>
<path id="Vector_2" d="M7.24343 7.51709C7.3135 7.51709 7.38357 7.49039 7.43697 7.43698C7.54368 7.33028 7.54368 7.15714 7.43697 7.05032C7.33016 6.94351 7.15702 6.94351 7.05021 7.05032L7.0501 7.05043C6.94329 7.15724 6.9434 7.33028 7.0501 7.43709C7.10351 7.49049 7.17347 7.51709 7.24343 7.51709Z" fill="#342771"/>
<path id="Vector_3" d="M9.8033 13.8946C9.76421 13.7487 9.61424 13.6622 9.46844 13.7013C9.32254 13.7404 9.23592 13.8902 9.27501 14.0361C9.60495 15.2673 10.7255 16.1271 12.0001 16.1271C13.2747 16.1271 14.3952 15.2674 14.7252 14.0361C14.7643 13.8902 14.6776 13.7404 14.5317 13.7013C14.3858 13.6622 14.236 13.7487 14.1969 13.8946C13.9309 14.8871 13.0276 15.5802 12.0001 15.5802C10.9726 15.5802 10.0693 14.8871 9.8033 13.8946Z" fill="#342771"/>
<path id="Vector_4" d="M13.4912 11.8924C13.5756 11.5777 13.8619 11.3579 14.1877 11.3579C14.5134 11.3579 14.7997 11.5777 14.8841 11.8924C14.9168 12.0145 15.0272 12.0951 15.148 12.0951C15.1714 12.0951 15.1953 12.092 15.219 12.0857C15.3649 12.0466 15.4514 11.8967 15.4123 11.7509C15.264 11.1975 14.7605 10.811 14.1877 10.811C13.6149 10.811 13.1113 11.1975 12.963 11.7509C12.9239 11.8967 13.0104 12.0466 13.1563 12.0857C13.3023 12.1248 13.4522 12.0382 13.4912 11.8924Z" fill="#342771"/>
<path id="Vector_5" d="M9.81245 10.811C9.23962 10.811 8.73611 11.1975 8.58786 11.7509C8.54877 11.8967 8.63528 12.0466 8.78119 12.0857C8.9272 12.1248 9.07706 12.0382 9.11604 11.8924C9.20042 11.5777 9.48678 11.3579 9.81245 11.3579C10.1382 11.3579 10.4246 11.5777 10.509 11.8924C10.5417 12.0145 10.6521 12.0951 10.7729 12.0951C10.7963 12.0951 10.8201 12.092 10.8438 12.0857C10.9897 12.0466 11.0762 11.8967 11.0372 11.7509C10.8889 11.1975 10.3853 10.811 9.81245 10.811Z" fill="#342771"/>
</g>
</g>
</svg>
