<svg width="24" height="24" viewBox="0 0 24 24" fill="none" xmlns="http://www.w3.org/2000/svg">
<g id="heart">
<path id="Vector" d="M12 18C11.8007 18 11.6085 17.9304 11.4588 17.8041C10.8932 17.3276 10.3479 16.8799 9.86687 16.4849L9.86441 16.4829C8.45396 15.3249 7.23599 14.3248 6.38855 13.3397C5.44124 12.2384 5 11.1943 5 10.0535C5 8.94525 5.39445 7.92279 6.11063 7.17436C6.83534 6.41708 7.82976 6 8.91101 6C9.71915 6 10.4592 6.24615 11.1107 6.73155C11.4395 6.97657 11.7375 7.27644 12 7.62621C12.2626 7.27644 12.5605 6.97657 12.8894 6.73155C13.5409 6.24615 14.281 6 15.0891 6C16.1702 6 17.1648 6.41708 17.8895 7.17436C18.6057 7.92279 19 8.94525 19 10.0535C19 11.1943 18.5589 12.2384 17.6116 13.3396C16.7641 14.3248 15.5462 15.3248 14.136 16.4827C13.6541 16.8782 13.108 17.3267 12.5411 17.8043C12.3915 17.9304 12.1992 18 12 18ZM8.91101 6.79011C8.06154 6.79011 7.28117 7.11673 6.71347 7.70988C6.13733 8.31197 5.81999 9.14427 5.81999 10.0535C5.81999 11.0129 6.19009 11.871 7.01991 12.8356C7.82196 13.768 9.01494 14.7475 10.3962 15.8816L10.3988 15.8836C10.8817 16.2801 11.4291 16.7296 11.9988 17.2096C12.572 16.7287 13.1202 16.2785 13.6041 15.8814C14.9853 14.7473 16.1781 13.768 16.9802 12.8356C17.8099 11.871 18.18 11.0129 18.18 10.0535C18.18 9.14427 17.8627 8.31197 17.2865 7.70988C16.7189 7.11673 15.9385 6.79011 15.0891 6.79011C14.4668 6.79011 13.8955 6.98069 13.391 7.3565C12.9414 7.69156 12.6283 8.11512 12.4447 8.41148C12.3502 8.56389 12.184 8.65486 12 8.65486C11.816 8.65486 11.6498 8.56389 11.5553 8.41148C11.3718 8.11512 11.0587 7.69156 10.609 7.3565C10.1045 6.98069 9.53319 6.79011 8.91101 6.79011Z" fill="black"/>
</g>
</svg>
