<svg width="24" height="24" viewBox="0 0 24 24" fill="none" xmlns="http://www.w3.org/2000/svg">
<g id="letter">
<g id="Group">
<path id="Vector" d="M12 15.9997C12.151 15.9997 12.2734 15.8887 12.2734 15.7518C12.2734 15.6149 12.151 15.5039 12 15.5039C11.849 15.5039 11.7266 15.6149 11.7266 15.7518C11.7266 15.8887 11.849 15.9997 12 15.9997Z" fill="black"/>
<path id="Vector_2" d="M18.726 8H5.27398C5.12266 8 5 8.11121 5 8.24837V15.7516C5 15.8888 5.12266 16 5.27398 16H10.7719C10.9232 16 11.0459 15.8888 11.0459 15.7516C11.0459 15.6144 10.9232 15.5032 10.7719 15.5032H6.04327L10.2224 12.7931L11.806 14.229C11.9115 14.3247 12.0886 14.3246 12.194 14.229L13.7776 12.7931L17.9568 15.5032H13.2281C13.0768 15.5032 12.9541 15.6144 12.9541 15.7516C12.9541 15.8888 13.0768 16 13.2281 16H18.726C18.8773 16 19 15.8888 19 15.7516V8.24837C19 8.11121 18.8773 8 18.726 8ZM5.54794 8.78632L9.78748 11.5355C9.75902 11.6359 9.74439 11.7394 9.74439 11.8448C9.74439 12.0375 9.7944 12.2275 9.88841 12.399L5.54794 15.2137V8.78632ZM10.1455 10.9662C10.1047 11.0032 10.067 11.0424 10.032 11.0832L6.0433 8.49677H17.9567L13.968 11.0833C13.9329 11.0424 13.8952 11.0031 13.8543 10.966C13.5953 10.7311 13.251 10.6018 12.8848 10.6018C12.5572 10.6018 12.2471 10.7053 12 10.8953C11.4618 10.4826 10.6529 10.5062 10.1455 10.9662ZM14.2128 11.5352L18.4521 8.78632V15.2137L14.1123 12.3994C14.2598 12.1323 14.2959 11.826 14.2128 11.5352ZM12 13.7024L10.5331 12.3723C10.2161 12.0849 10.217 11.6047 10.5332 11.3172C10.6937 11.1717 10.9044 11.099 11.1152 11.099C11.326 11.099 11.5368 11.1717 11.6972 11.3172L11.8063 11.4161C11.9133 11.5131 12.0867 11.5131 12.1937 11.4161L12.3028 11.3172C12.4583 11.1763 12.665 11.0986 12.8848 11.0986C13.1046 11.0986 13.3113 11.1763 13.4665 11.317C13.7838 11.6055 13.7848 12.084 13.4668 12.3723L12 13.7024Z" fill="black"/>
</g>
</g>
</svg>
