<svg width="24" height="24" viewBox="0 0 24 24" fill="none" xmlns="http://www.w3.org/2000/svg">
<g id="open-door">
<g id="Group 11">
<path id="Vector" d="M16.6886 13.2884C16.6354 13.2884 16.5845 13.2673 16.5469 13.2298C16.5094 13.1923 16.4883 13.1414 16.4883 13.0884V12.4944C16.4883 12.4414 16.5094 12.3905 16.5469 12.353C16.5845 12.3155 16.6354 12.2944 16.6886 12.2944C16.7417 12.2944 16.7926 12.3155 16.8302 12.353C16.8677 12.3905 16.8888 12.4414 16.8888 12.4944V13.0884C16.8888 13.1414 16.8677 13.1923 16.8302 13.2298C16.7926 13.2673 16.7417 13.2884 16.6886 13.2884Z" fill="black"/>
<path id="Vector_2" d="M10.2936 19C10.2405 19 10.1895 18.9789 10.152 18.9414C10.1144 18.9039 10.0933 18.8531 10.0933 18.8V5.20099C10.0932 5.17295 10.0989 5.14521 10.1102 5.11954C10.1215 5.09387 10.1381 5.07087 10.1589 5.05201C10.1796 5.03315 10.2042 5.01886 10.2308 5.01008C10.2575 5.00129 10.2857 4.9982 10.3136 5.001L16.7086 5.64696C16.7582 5.65193 16.8041 5.67518 16.8375 5.71216C16.8708 5.74914 16.8891 5.79719 16.8889 5.84694V9.11271C16.8889 9.16575 16.8678 9.21662 16.8302 9.25412C16.7926 9.29162 16.7417 9.31269 16.6886 9.31269C16.6355 9.31269 16.5845 9.29162 16.547 9.25412C16.5094 9.21662 16.4883 9.16575 16.4883 9.11271V6.02773L10.4939 5.42217V18.571L16.4883 17.7601V14.4883C16.4883 14.4353 16.5094 14.3844 16.547 14.3469C16.5845 14.3094 16.6355 14.2883 16.6886 14.2883C16.7417 14.2883 16.7926 14.3094 16.8302 14.3469C16.8678 14.3844 16.8889 14.4353 16.8889 14.4883V17.9341C16.8889 17.9824 16.8713 18.0292 16.8395 18.0656C16.8076 18.1021 16.7636 18.1257 16.7156 18.1323L10.3206 18.9982C10.3117 18.9994 10.3026 19 10.2936 19Z" fill="black"/>
<path id="Vector_3" d="M16.6886 11.2944C16.6354 11.2944 16.5845 11.2734 16.5469 11.2359C16.5094 11.1983 16.4883 11.1475 16.4883 11.0944V10.5125C16.4883 10.4594 16.5094 10.4086 16.5469 10.3711C16.5845 10.3336 16.6354 10.3125 16.6886 10.3125C16.7417 10.3125 16.7926 10.3336 16.8302 10.3711C16.8677 10.4086 16.8888 10.4594 16.8888 10.5125V11.0944C16.8888 11.1475 16.8677 11.1983 16.8302 11.2359C16.7926 11.2734 16.7417 11.2944 16.6886 11.2944Z" fill="black"/>
<path id="Vector_4" d="M7.32517 18.2624C7.27206 18.2624 7.22111 18.2413 7.18355 18.2038C7.14599 18.1663 7.12489 18.1154 7.12489 18.0624V5.84208C7.12489 5.78904 7.14599 5.73817 7.18355 5.70066C7.22111 5.66316 7.27206 5.64209 7.32517 5.64209H10.2933C10.3465 5.64209 10.3974 5.66316 10.435 5.70066C10.4725 5.73817 10.4936 5.78904 10.4936 5.84208C10.4936 5.89511 10.4725 5.94598 10.435 5.98349C10.3974 6.02099 10.3465 6.04206 10.2933 6.04206H7.52546V18.0624C7.52546 18.1154 7.50436 18.1663 7.4668 18.2038C7.42924 18.2413 7.37829 18.2624 7.32517 18.2624Z" fill="black"/>
<path id="Vector_5" d="M8.45663 18.2613C8.40351 18.2613 8.35257 18.2402 8.31501 18.2027C8.27745 18.1652 8.25635 18.1143 8.25635 18.0613V7.00907C8.25635 6.95603 8.27745 6.90516 8.31501 6.86766C8.35257 6.83015 8.40351 6.80908 8.45663 6.80908H10.2922C10.3453 6.80908 10.3963 6.83015 10.4338 6.86766C10.4714 6.90516 10.4925 6.95603 10.4925 7.00907C10.4925 7.06211 10.4714 7.11297 10.4338 7.15048C10.3963 7.18798 10.3453 7.20905 10.2922 7.20905H8.65691V18.0613C8.65691 18.1143 8.63581 18.1652 8.59825 18.2027C8.56069 18.2402 8.50975 18.2613 8.45663 18.2613Z" fill="black"/>
<path id="Vector_6" d="M10.292 18.2619H5.20028C5.14716 18.2619 5.09622 18.2408 5.05866 18.2032C5.0211 18.1657 5 18.1147 5 18.0616C5 18.0085 5.0211 17.9575 5.05866 17.92C5.09622 17.8824 5.14716 17.8613 5.20028 17.8613H10.292C10.3452 17.8613 10.3961 17.8824 10.4337 17.92C10.4712 17.9575 10.4923 18.0085 10.4923 18.0616C10.4923 18.1147 10.4712 18.1657 10.4337 18.2032C10.3961 18.2408 10.3452 18.2619 10.292 18.2619Z" fill="black"/>
<path id="Vector_7" d="M18.7996 18.2619H15.7337C15.6806 18.2619 15.6297 18.2408 15.5921 18.2032C15.5545 18.1657 15.5334 18.1147 15.5334 18.0616C15.5334 18.0085 15.5545 17.9575 15.5921 17.92C15.6297 17.8824 15.6806 17.8613 15.7337 17.8613H18.7996C18.8528 17.8613 18.9037 17.8824 18.9413 17.92C18.9788 17.9575 18.9999 18.0085 18.9999 18.0616C18.9999 18.1147 18.9788 18.1657 18.9413 18.2032C18.9037 18.2408 18.8528 18.2619 18.7996 18.2619Z" fill="black"/>
<path id="Vector_8" d="M11.6835 12.7233C11.5404 12.7233 11.4004 12.6809 11.2814 12.6015C11.1624 12.5221 11.0696 12.4092 11.0148 12.2772C10.96 12.1451 10.9457 11.9998 10.9736 11.8596C11.0016 11.7194 11.0705 11.5906 11.1717 11.4895C11.2729 11.3884 11.4019 11.3196 11.5423 11.2917C11.6827 11.2638 11.8283 11.2781 11.9605 11.3328C12.0928 11.3876 12.2058 11.4802 12.2854 11.599C12.3649 11.7179 12.4074 11.8576 12.4074 12.0006C12.4071 12.1922 12.3308 12.3759 12.1951 12.5114C12.0594 12.6469 11.8754 12.7231 11.6835 12.7233ZM11.6835 11.6778C11.6196 11.6778 11.5571 11.6967 11.5039 11.7322C11.4508 11.7677 11.4094 11.8181 11.3849 11.8771C11.3604 11.936 11.354 12.0009 11.3665 12.0636C11.379 12.1262 11.4098 12.1837 11.455 12.2288C11.5002 12.274 11.5578 12.3047 11.6205 12.3172C11.6832 12.3296 11.7482 12.3232 11.8072 12.2988C11.8663 12.2744 11.9168 12.233 11.9523 12.1799C11.9878 12.1268 12.0068 12.0644 12.0068 12.0006C12.0067 11.915 11.9726 11.833 11.912 11.7725C11.8514 11.712 11.7692 11.6779 11.6835 11.6778Z" fill="black"/>
</g>
</g>
</svg>
