<svg width="24" height="24" viewBox="0 0 24 24" fill="none" xmlns="http://www.w3.org/2000/svg">
<g id="open-book">
<g id="Group 7">
<path id="Vector" d="M18.7999 12.6337C18.7468 12.6337 18.6959 12.6137 18.6584 12.5782C18.6209 12.5426 18.5999 12.4944 18.5999 12.444V11.2624C18.5999 11.2121 18.6209 11.1639 18.6584 11.1283C18.6959 11.0927 18.7468 11.0728 18.7999 11.0728C18.8529 11.0728 18.9038 11.0927 18.9413 11.1283C18.9788 11.1639 18.9999 11.2121 18.9999 11.2624V12.444C18.9999 12.4944 18.9788 12.5426 18.9413 12.5782C18.9038 12.6137 18.8529 12.6337 18.7999 12.6337Z" fill="#342771"/>
<path id="Vector_2" d="M18.8 17.0002H5.2C5.14696 17.0002 5.09609 16.9802 5.05858 16.9447C5.02107 16.9091 5 16.8608 5 16.8105V8.76486C5 8.71456 5.02107 8.66632 5.05858 8.63075C5.09609 8.59518 5.14696 8.5752 5.2 8.5752H6.242C6.29504 8.5752 6.34591 8.59518 6.38342 8.63075C6.42093 8.66632 6.442 8.71456 6.442 8.76486C6.442 8.81517 6.42093 8.86341 6.38342 8.89898C6.34591 8.93455 6.29504 8.95453 6.242 8.95453H5.4V16.6209H18.6V15.5246C18.6 15.4743 18.6211 15.4261 18.6586 15.3905C18.6961 15.3549 18.747 15.3349 18.8 15.3349C18.853 15.3349 18.9039 15.3549 18.9414 15.3905C18.9789 15.4261 19 15.4743 19 15.5246V16.8105C19 16.8608 18.9789 16.9091 18.9414 16.9447C18.9039 16.9802 18.853 17.0002 18.8 17.0002Z" fill="#342771"/>
<path id="Vector_3" d="M18.7999 14.7655C18.7468 14.7655 18.6959 14.7455 18.6584 14.7099C18.6209 14.6744 18.5999 14.6261 18.5999 14.5758V13.3923C18.5999 13.342 18.6209 13.2938 18.6584 13.2582C18.6959 13.2226 18.7468 13.2026 18.7999 13.2026C18.8529 13.2026 18.9038 13.2226 18.9413 13.2582C18.9788 13.2938 18.9999 13.342 18.9999 13.3923V14.5758C18.9999 14.6261 18.9788 14.6744 18.9413 14.7099C18.9038 14.7455 18.8529 14.7655 18.7999 14.7655Z" fill="#342771"/>
<path id="Vector_4" d="M18.7999 10.5041C18.7468 10.5041 18.6959 10.4841 18.6584 10.4486C18.6209 10.413 18.5999 10.3647 18.5999 10.3144V8.95453H17.7579C17.7048 8.95453 17.6539 8.93455 17.6164 8.89898C17.5789 8.86341 17.5579 8.81517 17.5579 8.76486C17.5579 8.71456 17.5789 8.66632 17.6164 8.63075C17.6539 8.59518 17.7048 8.5752 17.7579 8.5752H18.7999C18.8529 8.5752 18.9038 8.59518 18.9413 8.63075C18.9788 8.66632 18.9999 8.71456 18.9999 8.76486V10.3144C18.9999 10.3647 18.9788 10.413 18.9413 10.4486C18.9038 10.4841 18.8529 10.5041 18.7999 10.5041Z" fill="#342771"/>
<path id="Vector_5" d="M17.76 15.9646H6.24102C6.18797 15.9646 6.1371 15.9446 6.09959 15.9091C6.06209 15.8735 6.04102 15.8253 6.04102 15.775V7.85275C6.04102 7.80245 6.06209 7.75421 6.09959 7.71864C6.1371 7.68307 6.18797 7.66309 6.24102 7.66309H7.29802C7.35106 7.66309 7.40193 7.68307 7.43944 7.71864C7.47694 7.75421 7.49802 7.80245 7.49802 7.85275C7.49802 7.90306 7.47694 7.9513 7.43944 7.98687C7.40193 8.02244 7.35106 8.04242 7.29802 8.04242H6.44102V15.5853H17.56V8.04242H16.702C16.649 8.04242 16.5981 8.02244 16.5606 7.98687C16.5231 7.9513 16.502 7.90306 16.502 7.85275C16.502 7.80245 16.5231 7.75421 16.5606 7.71864C16.5981 7.68307 16.649 7.66309 16.702 7.66309H17.76C17.8131 7.66309 17.8639 7.68307 17.9014 7.71864C17.9389 7.75421 17.96 7.80245 17.96 7.85275V15.775C17.96 15.8253 17.9389 15.8735 17.9014 15.9091C17.8639 15.9446 17.8131 15.9646 17.76 15.9646Z" fill="#342771"/>
<path id="Vector_6" d="M12 15.9661C11.9469 15.9661 11.8961 15.9462 11.8586 15.9106C11.821 15.875 11.8 15.8268 11.8 15.7765V8.76392C11.8 8.71501 11.8199 8.66798 11.8556 8.63267C13.04 7.46015 14.581 6.94198 16.7076 7.00513C16.7595 7.00666 16.8088 7.02732 16.845 7.06272C16.8812 7.09813 16.9014 7.1455 16.9014 7.1948V14.6747C16.9014 14.725 16.8803 14.7732 16.8428 14.8088C16.8053 14.8444 16.7544 14.8644 16.7014 14.8644C16.6483 14.8644 16.5975 14.8444 16.56 14.8088C16.5224 14.7732 16.5014 14.725 16.5014 14.6747V7.3803C14.6286 7.35886 13.2574 7.82469 12.2 8.84073V15.7765C12.2 15.8268 12.1789 15.875 12.1414 15.9106C12.1039 15.9462 12.053 15.9661 12 15.9661Z" fill="#342771"/>
<path id="Vector_7" d="M11.9999 15.9661C11.9469 15.9661 11.896 15.9461 11.8585 15.9105C11.821 15.8749 11.7999 15.8267 11.7999 15.7764V8.84084C10.7413 7.82441 9.36531 7.35347 7.49651 7.3804V14.6746C7.49651 14.7249 7.47544 14.7732 7.43793 14.8087C7.40043 14.8443 7.34956 14.8643 7.29651 14.8643C7.24347 14.8643 7.1926 14.8443 7.15509 14.8087C7.11758 14.7732 7.09651 14.7249 7.09651 14.6746V7.19472C7.09649 7.14539 7.11673 7.09799 7.15295 7.06258C7.18917 7.02717 7.23852 7.00653 7.29051 7.00505C9.41591 6.94246 10.9583 7.46025 12.1443 8.63258C12.18 8.6679 12.1999 8.71492 12.1999 8.76383V15.7764C12.1999 15.8267 12.1788 15.8749 12.1413 15.9105C12.1038 15.9461 12.053 15.9661 11.9999 15.9661Z" fill="#342771"/>
<path id="Vector_8" d="M12.0001 15.9666C11.9547 15.9668 11.9107 15.9524 11.8751 15.9257C11.8395 15.8991 11.8145 15.8617 11.8043 15.8198C11.794 15.7779 11.7991 15.7339 11.8186 15.6951C11.8382 15.6563 11.8711 15.625 11.9119 15.6062C13.4519 14.8921 16.5457 14.5022 16.6765 14.4859C16.7289 14.4796 16.7819 14.4933 16.8237 14.5239C16.8655 14.5546 16.8929 14.5997 16.8998 14.6494C16.9066 14.6991 16.8925 14.7494 16.8604 14.7892C16.8283 14.829 16.7809 14.8552 16.7285 14.862C16.6969 14.866 13.5685 15.2603 12.0885 15.9471C12.061 15.9599 12.0308 15.9666 12.0001 15.9666Z" fill="#342771"/>
<path id="Vector_9" d="M11.9998 15.9663C11.9694 15.9664 11.9393 15.9599 11.912 15.9473C10.4302 15.2601 7.30277 14.8662 7.27197 14.8622C7.24582 14.8591 7.22058 14.8511 7.1977 14.8387C7.17482 14.8263 7.15475 14.8098 7.13864 14.79C7.12253 14.7702 7.1107 14.7476 7.10383 14.7235C7.09697 14.6993 7.0952 14.6742 7.09862 14.6494C7.10205 14.6246 7.1106 14.6007 7.1238 14.5791C7.13699 14.5574 7.15456 14.5385 7.17551 14.5233C7.19645 14.5082 7.22034 14.4971 7.24582 14.4907C7.2713 14.4843 7.29786 14.4827 7.32397 14.4861C7.45477 14.5024 10.5482 14.8924 12.0884 15.6065C12.1292 15.6252 12.1621 15.6566 12.1816 15.6954C12.2012 15.7341 12.2063 15.7781 12.196 15.82C12.1858 15.8619 12.1609 15.8992 12.1253 15.9259C12.0898 15.9526 12.0457 15.967 12.0004 15.9668L11.9998 15.9663Z" fill="#342771"/>
<path id="Vector_10" d="M12.9982 10.1177C12.9547 10.1178 12.9124 10.1044 12.8776 10.0796C12.8429 10.0548 12.8176 10.0199 12.8056 9.98029C12.7936 9.94064 12.7956 9.89838 12.8112 9.85989C12.8268 9.8214 12.8553 9.78879 12.8922 9.767C13.7414 9.25632 14.7195 8.97107 15.7246 8.941C15.7776 8.93954 15.8291 8.95812 15.8677 8.99266C15.9063 9.0272 15.9288 9.07486 15.9304 9.12516C15.9319 9.17547 15.9123 9.22429 15.8759 9.26089C15.8395 9.29749 15.7892 9.31887 15.7362 9.32033C14.8019 9.34874 13.8928 9.61427 13.1036 10.0892C13.0719 10.1078 13.0354 10.1177 12.9982 10.1177Z" fill="#342771"/>
<path id="Vector_11" d="M12.9982 11.4316C12.9547 11.4317 12.9124 11.4183 12.8776 11.3935C12.8429 11.3687 12.8176 11.3339 12.8056 11.2942C12.7936 11.2546 12.7956 11.2123 12.8112 11.1738C12.8268 11.1353 12.8553 11.1027 12.8922 11.0809C13.7415 10.5706 14.7195 10.2857 15.7244 10.2557C15.7508 10.2542 15.7773 10.2579 15.8021 10.2665C15.827 10.2751 15.8498 10.2884 15.8691 10.3056C15.8883 10.3229 15.9037 10.3436 15.9142 10.3667C15.9247 10.3897 15.9301 10.4145 15.9302 10.4397C15.9317 10.4899 15.9122 10.5387 15.8759 10.5753C15.8395 10.6119 15.7894 10.6333 15.7364 10.6348C14.8021 10.6634 13.8929 10.929 13.1036 11.4039C13.0718 11.4223 13.0353 11.4318 12.9982 11.4316Z" fill="#342771"/>
<path id="Vector_12" d="M12.9982 12.7451C12.9547 12.7452 12.9124 12.7318 12.8776 12.707C12.8429 12.6822 12.8176 12.6474 12.8056 12.6077C12.7936 12.5681 12.7956 12.5258 12.8112 12.4873C12.8268 12.4488 12.8553 12.4162 12.8922 12.3944C13.7414 11.8838 14.7195 11.5985 15.7246 11.5684C15.7508 11.5677 15.777 11.5719 15.8016 11.5808C15.8261 11.5896 15.8486 11.603 15.8677 11.6201C15.8868 11.6372 15.9022 11.6577 15.9129 11.6804C15.9237 11.7032 15.9296 11.7277 15.9304 11.7526C15.9311 11.7775 15.9267 11.8023 15.9174 11.8256C15.908 11.8489 15.8939 11.8702 15.8759 11.8883C15.8579 11.9065 15.8362 11.921 15.8123 11.9312C15.7883 11.9414 15.7624 11.9471 15.7362 11.9478C14.8019 11.9761 13.8927 12.2416 13.1036 12.7167C13.0719 12.7353 13.0354 12.7451 12.9982 12.7451Z" fill="#342771"/>
<path id="Vector_13" d="M12.9982 14.0584C12.9545 14.0587 12.9119 14.0454 12.877 14.0205C12.842 13.9957 12.8166 13.9607 12.8046 13.9209C12.7926 13.8811 12.7946 13.8386 12.8104 13.8C12.8263 13.7614 12.855 13.7288 12.8922 13.7071C13.7414 13.1964 14.7195 12.9111 15.7246 12.8809C15.7508 12.8802 15.777 12.8844 15.8015 12.8933C15.8261 12.9021 15.8486 12.9155 15.8677 12.9326C15.8868 12.9497 15.9022 12.9702 15.9129 12.9929C15.9237 13.0157 15.9296 13.0402 15.9304 13.0651C15.9311 13.09 15.9267 13.1148 15.9174 13.1381C15.908 13.1614 15.8939 13.1827 15.8759 13.2008C15.8579 13.219 15.8362 13.2335 15.8123 13.2437C15.7883 13.2539 15.7624 13.2596 15.7362 13.2603C14.8019 13.2888 13.8928 13.5545 13.1036 14.0296C13.072 14.0483 13.0355 14.0583 12.9982 14.0584Z" fill="#342771"/>
<path id="Vector_14" d="M11.0017 10.1176C10.9644 10.1176 10.9279 10.1077 10.8963 10.089C10.107 9.61402 9.19792 9.3485 8.26367 9.32009C8.21065 9.3186 8.16043 9.2972 8.12405 9.2606C8.08767 9.224 8.06811 9.1752 8.06967 9.12492C8.0719 9.07489 8.09464 9.02767 8.13304 8.99331C8.17144 8.95894 8.22247 8.94016 8.27527 8.94094C9.28032 8.97102 10.2585 9.25627 11.1077 9.76694C11.1446 9.78873 11.173 9.82134 11.1886 9.85983C11.2043 9.89832 11.2062 9.94059 11.1942 9.98023C11.1823 10.0199 11.157 10.0547 11.1222 10.0795C11.0875 10.1043 11.0452 10.1177 11.0017 10.1176Z" fill="#342771"/>
<path id="Vector_15" d="M11.0017 11.4315C10.9644 11.4314 10.9279 11.4215 10.8963 11.4028C10.1069 10.9279 9.19778 10.6623 8.26347 10.6337C8.21049 10.6322 8.16032 10.6108 8.12398 10.5742C8.08764 10.5376 8.06811 10.4888 8.06967 10.4386C8.07007 10.4135 8.07576 10.3889 8.08639 10.366C8.09702 10.3431 8.11239 10.3225 8.13158 10.3053C8.15076 10.2882 8.17339 10.2748 8.1981 10.2661C8.22282 10.2574 8.24912 10.2535 8.27547 10.2546C9.28045 10.2848 10.2585 10.5701 11.1077 11.0808C11.1446 11.1026 11.173 11.1352 11.1886 11.1737C11.2043 11.2121 11.2062 11.2544 11.1942 11.2941C11.1823 11.3337 11.157 11.3686 11.1222 11.3934C11.0875 11.4181 11.0452 11.4315 11.0017 11.4315Z" fill="#342771"/>
<path id="Vector_16" d="M11.0019 12.7448C10.9646 12.7448 10.9281 12.7349 10.8965 12.7162C10.1073 12.2411 9.19814 11.9756 8.26386 11.9473C8.21082 11.9458 8.16056 11.9244 8.12414 11.8878C8.08772 11.8512 8.06813 11.8024 8.06966 11.7521C8.0712 11.7018 8.09375 11.6542 8.13234 11.6196C8.17094 11.5851 8.22242 11.5665 8.27546 11.568C9.28052 11.598 10.2587 11.8833 11.1079 12.394C11.1448 12.4157 11.1732 12.4484 11.1888 12.4868C11.2045 12.5253 11.2064 12.5676 11.1944 12.6072C11.1825 12.6469 11.1572 12.6817 11.1224 12.7065C11.0877 12.7313 11.0454 12.7447 11.0019 12.7446V12.7448Z" fill="#342771"/>
<path id="Vector_17" d="M11.0017 14.0587C10.9644 14.0587 10.9279 14.0488 10.8963 14.0301C10.107 13.5551 9.19793 13.2895 8.26366 13.261C8.21068 13.2595 8.16049 13.2381 8.12411 13.2016C8.08774 13.165 8.06815 13.1163 8.06966 13.066C8.07204 13.016 8.09482 12.9689 8.13319 12.9345C8.17155 12.9001 8.22249 12.8813 8.27526 12.8818C9.28027 12.9119 10.2584 13.197 11.1077 13.7075C11.1446 13.7293 11.173 13.7619 11.1886 13.8004C11.2043 13.8388 11.2062 13.8811 11.1942 13.9208C11.1823 13.9604 11.157 13.9953 11.1222 14.0201C11.0875 14.0448 11.0451 14.0582 11.0017 14.0582V14.0587Z" fill="#342771"/>
</g>
</g>
</svg>
