<svg width="24" height="24" viewBox="0 0 24 24" fill="none" xmlns="http://www.w3.org/2000/svg">
<g id="serum">
<g id="Group 8">
<path id="Vector" d="M9.26462 10.242C8.36304 10.7419 7.65225 11.5287 7.24393 12.4788C6.83561 13.4289 6.75289 14.4883 7.00877 15.4907C7.26464 16.4932 7.84461 17.3818 8.65756 18.017C9.47052 18.6522 10.4704 18.9979 11.5001 19C11.5214 19 11.5426 18.9999 11.5637 18.9996C12.5887 18.9852 13.5801 18.6305 14.3835 17.9907C15.1869 17.3509 15.7571 16.462 16.0052 15.4624C16.2533 14.4629 16.1654 13.4089 15.7552 12.4648C15.345 11.5207 14.6356 10.7396 13.7374 10.2431C13.4821 10.102 13.2691 9.89477 13.1206 9.64284C12.9721 9.39091 12.8935 9.10356 12.8932 8.81074V7.75987C13.0409 7.70738 13.1667 7.60635 13.2502 7.47311C13.3338 7.33987 13.3701 7.18221 13.3535 7.02562C13.3368 6.86903 13.2681 6.72267 13.1584 6.6102C13.0487 6.49773 12.9045 6.42573 12.749 6.40583L13.1134 5.30713C13.1251 5.27205 13.1282 5.2347 13.1227 5.19814C13.1171 5.16159 13.103 5.12689 13.0815 5.0969C13.06 5.0669 13.0317 5.04247 12.999 5.02563C12.9662 5.00878 12.9299 5 12.8932 5H10.1071C10.0703 5 10.0341 5.00879 10.0013 5.02564C9.96857 5.04249 9.94028 5.06691 9.91877 5.09691C9.89726 5.1269 9.88315 5.1616 9.87761 5.19815C9.87206 5.2347 9.87523 5.27205 9.88687 5.30713L10.2513 6.40583C10.0958 6.42572 9.95159 6.49772 9.8419 6.61019C9.73222 6.72265 9.66348 6.86902 9.64681 7.0256C9.63014 7.18219 9.66651 7.33986 9.75004 7.4731C9.83357 7.60634 9.95937 7.70738 10.1071 7.75987V8.81077C10.107 9.10327 10.0288 9.39038 9.88057 9.64213C9.73238 9.89387 9.51966 10.101 9.26462 10.242ZM13.5136 10.6518C14.3263 11.1009 14.9674 11.809 15.3356 12.6645C15.7039 13.52 15.7785 14.4744 15.5477 15.3773C15.317 16.2801 14.7939 17.0801 14.0609 17.6513C13.3279 18.2225 12.4266 18.5324 11.4991 18.5322C10.5716 18.5319 9.6705 18.2216 8.93778 17.6501C8.20506 17.0785 7.68236 16.2782 7.45201 15.3753C7.22165 14.4723 7.29674 13.518 7.66544 12.6626C8.03414 11.8073 8.6755 11.0995 9.48849 10.6508C9.81636 10.4696 10.0898 10.2033 10.2803 9.87959C10.4708 9.55593 10.5713 9.18681 10.5715 8.81077V7.8H12.4288V8.81074C12.4292 9.18708 12.5301 9.55642 12.7209 9.88024C12.9117 10.2041 13.1854 10.4705 13.5136 10.6518ZM12.571 5.46667L12.2614 6.4H10.7388L10.4292 5.46667H12.571ZM10.3393 6.86667H12.661C12.7226 6.86667 12.7816 6.89125 12.8251 6.93501C12.8687 6.97877 12.8932 7.03812 12.8932 7.1C12.8932 7.16188 12.8687 7.22123 12.8251 7.26499C12.7816 7.30875 12.7226 7.33333 12.661 7.33333H10.3393C10.2777 7.33333 10.2187 7.30875 10.1751 7.26499C10.1316 7.22123 10.1071 7.16188 10.1071 7.1C10.1071 7.03812 10.1316 6.97877 10.1751 6.93501C10.2187 6.89125 10.2777 6.86667 10.3393 6.86667Z" fill="black"/>
<path id="Vector_2" d="M11.4441 12.4528C11.1771 12.3033 10.8805 12.2146 10.5755 12.1931C10.2705 12.1716 9.96456 12.2179 9.67933 12.3285L8.14991 12.9196C8.11733 12.931 8.08769 12.9495 8.06314 12.9739C8.03859 12.9982 8.01974 13.0278 8.00797 13.0604C7.86328 13.4618 7.78842 13.8852 7.78668 14.3121C7.77548 16.3496 9.41477 18.0338 11.441 18.066C11.4613 18.0663 11.4816 18.0665 11.5019 18.0665C12.1565 18.0663 12.7993 17.8923 13.3654 17.5621C13.9315 17.2319 14.4008 16.7573 14.7258 16.1863C15.0507 15.6152 15.2198 14.9681 15.2159 14.3103C15.212 13.6524 15.0352 13.0074 14.7035 12.4403C14.6744 12.3907 14.6281 12.3536 14.5734 12.3363C14.5188 12.319 14.4597 12.3226 14.4075 12.3464L13.4184 12.7983C13.187 12.9034 12.9343 12.9528 12.6805 12.9426C12.4268 12.9323 12.1789 12.8626 11.9566 12.7391L11.4441 12.4528ZM13.6106 13.223L14.4035 12.8607C14.6556 13.3629 14.7745 13.9219 14.7486 14.4837C14.7227 15.0455 14.5529 15.5911 14.2557 16.0677C13.9585 16.5442 13.544 16.9356 13.0522 17.2039C12.5604 17.4723 12.008 17.6085 11.4484 17.5994C9.67558 17.5711 8.24127 16.0976 8.25108 14.3147C8.25253 13.9764 8.30638 13.6405 8.41069 13.3189L9.846 12.764C10.0679 12.678 10.3058 12.642 10.5431 12.6587C10.7803 12.6755 11.011 12.7444 11.2187 12.8607L11.7312 13.1469C12.017 13.3057 12.3357 13.3952 12.6619 13.4084C12.9882 13.4216 13.313 13.3581 13.6106 13.223Z" fill="black"/>
<path id="Vector_3" d="M10.1072 14.1C10.2354 14.1 10.3393 13.9955 10.3393 13.8666C10.3393 13.7378 10.2354 13.6333 10.1072 13.6333C9.97895 13.6333 9.875 13.7378 9.875 13.8666C9.875 13.9955 9.97895 14.1 10.1072 14.1Z" fill="black"/>
<path id="Vector_4" d="M10.8022 14.8002C10.9305 14.8002 11.0344 14.6957 11.0344 14.5668C11.0344 14.438 10.9305 14.3335 10.8022 14.3335C10.674 14.3335 10.5701 14.438 10.5701 14.5668C10.5701 14.6957 10.674 14.8002 10.8022 14.8002Z" fill="black"/>
<path id="Vector_5" d="M10.1072 15.4999C10.2354 15.4999 10.3393 15.3954 10.3393 15.2665C10.3393 15.1377 10.2354 15.0332 10.1072 15.0332C9.97895 15.0332 9.875 15.1377 9.875 15.2665C9.875 15.3954 9.97895 15.4999 10.1072 15.4999Z" fill="black"/>
<path id="Vector_6" d="M16.3768 11.2998C16.3768 11.3617 16.4012 11.421 16.4448 11.4648C16.4883 11.5086 16.5473 11.5331 16.6089 11.5331C16.6705 11.5331 16.7296 11.5086 16.7731 11.4648C16.8166 11.421 16.8411 11.3617 16.8411 11.2998C16.8411 10.118 17.7746 9.904 17.8164 9.89505C17.8687 9.88407 17.9156 9.85536 17.9492 9.81374C17.9829 9.77211 18.0012 9.72012 18.0012 9.66649C18.0012 9.61286 17.9829 9.56086 17.9492 9.51924C17.9156 9.47761 17.8687 9.4489 17.8164 9.43792C17.7768 9.42943 16.8411 9.21631 16.8411 8.03314C16.8411 7.97125 16.8166 7.9119 16.7731 7.86815C16.7296 7.82439 16.6705 7.7998 16.6089 7.7998C16.5473 7.7998 16.4883 7.82439 16.4448 7.86815C16.4012 7.9119 16.3768 7.97125 16.3768 8.03314C16.3768 9.21631 15.4411 9.42943 15.4025 9.43766C15.3502 9.44838 15.303 9.47693 15.2692 9.51849C15.2353 9.56005 15.2167 9.61209 15.2166 9.66582C15.2164 9.71955 15.2347 9.77169 15.2683 9.81344C15.302 9.85519 15.3489 9.88401 15.4013 9.89502C15.4411 9.90351 16.3768 10.1166 16.3768 11.2998ZM16.1736 9.55701C16.3522 9.41348 16.5003 9.23528 16.6089 9.03303C16.7176 9.23528 16.8656 9.41348 17.0442 9.55701C17.093 9.59616 17.1438 9.6327 17.1964 9.66647C17.1438 9.70024 17.093 9.73678 17.0442 9.77593C16.8656 9.91946 16.7176 10.0977 16.6089 10.2999C16.5003 10.0977 16.3522 9.91946 16.1736 9.77593C16.1248 9.73678 16.074 9.70024 16.0214 9.66647C16.074 9.6327 16.1248 9.59616 16.1736 9.55701Z" fill="black"/>
<path id="Vector_7" d="M7.60008 7.10491C7.56023 7.09643 6.62456 6.88331 6.62456 5.70013C6.62456 5.63825 6.6001 5.5789 6.55656 5.53514C6.51302 5.49138 6.45396 5.4668 6.39239 5.4668C6.33081 5.4668 6.27176 5.49138 6.22822 5.53514C6.18468 5.5789 6.16022 5.63825 6.16022 5.70013C6.16022 6.88331 5.22454 7.09643 5.186 7.10465C5.13362 7.11537 5.08651 7.14391 5.05262 7.18547C5.01874 7.22703 5.00015 7.27907 5 7.3328C4.99985 7.38653 5.01814 7.43867 5.05178 7.48042C5.08543 7.52218 5.13237 7.551 5.1847 7.56201C5.22454 7.5705 6.16022 7.78362 6.16022 8.9668C6.16022 9.02868 6.18468 9.08803 6.22822 9.13179C6.27176 9.17555 6.33081 9.20013 6.39239 9.20013C6.45396 9.20013 6.51302 9.17555 6.55656 9.13179C6.6001 9.08803 6.62456 9.02868 6.62456 8.9668C6.62456 7.78496 7.55808 7.571 7.59993 7.56204C7.65217 7.55108 7.69906 7.52238 7.73273 7.48077C7.76639 7.43916 7.78478 7.38717 7.78479 7.33354C7.78481 7.27991 7.76646 7.2279 7.73282 7.18627C7.69918 7.14464 7.65231 7.11591 7.60008 7.10491ZM6.82771 7.44293C6.64908 7.58646 6.50104 7.76466 6.39239 7.96691C6.28374 7.76466 6.13569 7.58646 5.95707 7.44293C5.90829 7.40377 5.85749 7.36724 5.80488 7.33346C5.85749 7.29969 5.90829 7.26315 5.95707 7.224C6.13569 7.08047 6.28374 6.90227 6.39239 6.70002C6.50104 6.90227 6.64908 7.08047 6.82771 7.224C6.87648 7.26315 6.92728 7.29969 6.97989 7.33346C6.92728 7.36724 6.87648 7.40377 6.82771 7.44293Z" fill="black"/>
</g>
</g>
</svg>
