<svg width="24" height="24" viewBox="0 0 24 24" fill="none" xmlns="http://www.w3.org/2000/svg">
<g id="toilet 1">
<g id="Group">
<path id="Vector" d="M15.8802 10.0044C15.9935 10.0044 16.0854 9.91259 16.0854 9.79938V6.19487C16.3244 6.11027 16.496 5.88228 16.496 5.61499C16.496 5.27587 16.2197 5 15.8802 5H10.2239C10.1106 5 10.0187 5.09179 10.0187 5.205C10.0187 5.3182 10.1106 5.40999 10.2239 5.40999H15.8802C15.9934 5.40999 16.0854 5.50195 16.0854 5.61499C16.0854 5.72803 15.9934 5.81999 15.8802 5.81999H8.10748C7.99431 5.81999 7.90221 5.72803 7.90221 5.61499C7.90221 5.50195 7.99428 5.40999 8.10748 5.40999H9.26907C9.38244 5.40999 9.47434 5.3182 9.47434 5.205C9.47434 5.09179 9.38244 5 9.26907 5H8.10748C7.76793 5 7.4917 5.27587 7.4917 5.61502C7.4917 5.8823 7.66328 6.11027 7.90224 6.1949V11.3471C7.90224 11.4603 7.99414 11.5521 8.10751 11.5521H9.43415V12.2354H8.14647C7.78543 12.2354 7.4917 12.5288 7.4917 12.8893V13.2604C7.4917 13.3737 7.5836 13.4654 7.69697 13.4654H7.90224V14.5964C7.90224 16.0633 9.09722 17.2568 10.566 17.2568H10.5772L10.1135 18.7337C10.0939 18.7959 10.1052 18.8638 10.1439 18.9164C10.1825 18.969 10.244 19 10.3093 19H13.6784C13.7437 19 13.8051 18.9689 13.8438 18.9164C13.8825 18.8638 13.8938 18.7959 13.8742 18.7337L13.4105 17.2568H13.4216C14.8904 17.2568 16.0854 16.0633 16.0854 14.5964V13.4654H16.2907C16.4041 13.4654 16.496 13.3736 16.496 13.2604V12.8893C16.496 12.5288 16.2022 12.2354 15.8412 12.2354H14.5535V11.5521H15.8802C15.9935 11.5521 16.0854 11.4603 16.0854 11.3471V10.7446C16.0854 10.6314 15.9935 10.5396 15.8802 10.5396C15.7668 10.5396 15.6749 10.6314 15.6749 10.7446V11.1421H8.31275V6.23001H15.6749V9.79938C15.6749 9.91259 15.7668 10.0044 15.8802 10.0044ZM13.3989 18.59H10.5888L11.0074 17.2568H12.9803L13.3989 18.59ZM16.0854 12.8893V13.0554H10.1412C10.0278 13.0554 9.93588 13.1472 9.93588 13.2604C9.93588 13.3736 10.0278 13.4654 10.1412 13.4654H15.6749V14.5964C15.6749 15.8373 14.6641 16.8468 13.4217 16.8468H10.566C9.32354 16.8468 8.31275 15.8373 8.31275 14.5964V13.4654H9.20175C9.31512 13.4654 9.40702 13.3736 9.40702 13.2604C9.40702 13.1472 9.31512 13.0554 9.20175 13.0554H7.90224V12.8893C7.90224 12.7548 8.01181 12.6454 8.14647 12.6454H15.8412C15.9759 12.6454 16.0854 12.7548 16.0854 12.8893ZM14.143 11.5521V12.2354H9.84466V11.5521H14.143Z" fill="black"/>
<path id="Vector_2" d="M9.37687 6.67285C9.02231 6.67285 8.73386 6.96095 8.73386 7.31505C8.73386 7.66915 9.02231 7.95725 9.37687 7.95725C9.6531 7.95725 10.2805 7.6009 10.4661 7.49172C10.5288 7.45486 10.5673 7.38767 10.5673 7.31508C10.5673 7.24248 10.5288 7.17527 10.4661 7.13844C10.2805 7.0292 9.65313 6.67285 9.37687 6.67285ZM9.37687 7.54725C9.24869 7.54725 9.1444 7.4431 9.1444 7.31508C9.1444 7.18705 9.24869 7.0829 9.37687 7.0829C9.44808 7.08334 9.67785 7.1806 9.93775 7.3151C9.6779 7.44958 9.44819 7.54682 9.37687 7.54725Z" fill="black"/>
<path id="Vector_3" d="M18.7948 10.1022C18.3607 10.1022 18.0075 9.74943 18.0075 9.31584C18.0075 9.20261 17.9156 9.11084 17.8022 9.11084C17.6888 9.11084 17.5969 9.20263 17.5969 9.31584C17.5969 9.74943 17.2437 10.1022 16.8096 10.1022C16.6962 10.1022 16.6043 10.194 16.6043 10.3072C16.6043 10.4204 16.6962 10.5122 16.8096 10.5122C17.2437 10.5122 17.5969 10.8649 17.5969 11.2985C17.5969 11.4117 17.6888 11.5035 17.8022 11.5035C17.9156 11.5035 18.0075 11.4117 18.0075 11.2985C18.0075 10.8649 18.3607 10.5122 18.7948 10.5122C18.9082 10.5122 19.0001 10.4204 19.0001 10.3072C19.0001 10.1939 18.9082 10.1022 18.7948 10.1022ZM17.8022 10.6295C17.7162 10.5026 17.6065 10.3931 17.4794 10.3072C17.6065 10.2213 17.7162 10.1117 17.8022 9.98483C17.8882 10.1117 17.9979 10.2212 18.1249 10.3072C17.9979 10.393 17.8882 10.5026 17.8022 10.6295Z" fill="black"/>
<path id="Vector_4" d="M17.1141 8.19837H17.1922V8.27636C17.1922 8.38959 17.2841 8.48135 17.3974 8.48135C17.5108 8.48135 17.6027 8.38956 17.6027 8.27636V8.19837H17.6808C17.7942 8.19837 17.8861 8.10658 17.8861 7.99338C17.8861 7.88015 17.7942 7.78838 17.6808 7.78838H17.6027V7.71037C17.6027 7.59714 17.5108 7.50537 17.3974 7.50537C17.2841 7.50537 17.1922 7.59716 17.1922 7.71037V7.78835H17.1141C17.0007 7.78835 16.9088 7.88015 16.9088 7.99335C16.9088 8.10658 17.0007 8.19837 17.1141 8.19837Z" fill="black"/>
<path id="Vector_5" d="M18.584 12.7908H18.5059V12.7128C18.5059 12.5996 18.414 12.5078 18.3006 12.5078C18.1873 12.5078 18.0954 12.5996 18.0954 12.7128V12.7908H18.0173C17.9039 12.7908 17.812 12.8826 17.812 12.9958C17.812 13.109 17.9039 13.2008 18.0173 13.2008H18.0954V13.2788C18.0954 13.392 18.1873 13.4838 18.3006 13.4838C18.414 13.4838 18.5059 13.392 18.5059 13.2788V13.2008H18.584C18.6974 13.2008 18.7893 13.109 18.7893 12.9958C18.7893 12.8826 18.6973 12.7908 18.584 12.7908Z" fill="black"/>
<path id="Vector_6" d="M7.19049 11.4415C6.75635 11.4415 6.40315 11.0888 6.40315 10.6552C6.40315 10.542 6.31124 10.4502 6.19788 10.4502C6.08451 10.4502 5.99261 10.542 5.99261 10.6552C5.99261 11.0888 5.63941 11.4415 5.20527 11.4415C5.0919 11.4415 5 11.5333 5 11.6465C5 11.7597 5.0919 11.8515 5.20527 11.8515C5.63941 11.8515 5.99261 12.2042 5.99261 12.6378C5.99261 12.7511 6.08451 12.8428 6.19788 12.8428C6.31124 12.8428 6.40315 12.751 6.40315 12.6378C6.40315 12.2042 6.75635 11.8515 7.19049 11.8515C7.30385 11.8515 7.39575 11.7597 7.39575 11.6465C7.39575 11.5333 7.30385 11.4415 7.19049 11.4415ZM6.19788 11.9688C6.11188 11.842 6.00221 11.7324 5.87514 11.6465C6.00218 11.5606 6.11185 11.4511 6.19788 11.3242C6.28387 11.4511 6.39355 11.5606 6.52062 11.6465C6.39355 11.7324 6.28387 11.842 6.19788 11.9688Z" fill="black"/>
<path id="Vector_7" d="M6.31924 9.5377H6.39733V9.61568C6.39733 9.72891 6.48923 9.82068 6.6026 9.82068C6.71597 9.82068 6.80787 9.72888 6.80787 9.61568V9.5377H6.88597C6.99933 9.5377 7.09124 9.4459 7.09124 9.3327C7.09124 9.21947 6.99933 9.12771 6.88597 9.12771H6.80787V9.04972C6.80787 8.93649 6.71597 8.84473 6.6026 8.84473C6.48923 8.84473 6.39733 8.93652 6.39733 9.04972V9.12771H6.31924C6.20587 9.12771 6.11397 9.2195 6.11397 9.3327C6.114 9.44593 6.2059 9.5377 6.31924 9.5377Z" fill="black"/>
<path id="Vector_8" d="M5.98277 14.1301H5.90467V14.0522C5.90467 13.9389 5.81277 13.8472 5.6994 13.8472C5.58604 13.8472 5.49413 13.939 5.49413 14.0522V14.1301H5.41604C5.30267 14.1301 5.21077 14.2219 5.21077 14.3351C5.21077 14.4483 5.30267 14.5401 5.41604 14.5401H5.49413V14.6181C5.49413 14.7314 5.58604 14.8231 5.6994 14.8231C5.81277 14.8231 5.90467 14.7313 5.90467 14.6181V14.5401H5.98277C6.09613 14.5401 6.18804 14.4483 6.18804 14.3351C6.18804 14.2219 6.09613 14.1301 5.98277 14.1301Z" fill="black"/>
</g>
</g>
</svg>
