<svg width="24" height="24" viewBox="0 0 24 24" fill="none" xmlns="http://www.w3.org/2000/svg">
<g id="weighing-scale">
<g id="Group">
<path id="Vector" d="M11.9999 6.854C11.9999 6.854 11.9999 6.854 11.9999 6.854C10.1101 6.854 8.33713 7.69576 7.00745 9.22422C6.86336 9.38985 6.86336 9.6363 7.00745 9.80193L9.40548 12.5584C9.48907 12.6545 9.61019 12.7097 9.73752 12.7097H14.2623C14.3897 12.7097 14.5108 12.6545 14.5944 12.5584L16.9924 9.80193C17.1365 9.6363 17.1365 9.38982 16.9924 9.22419C15.6627 7.69576 13.8896 6.85403 11.9999 6.854ZM11.7413 11.8295L11.9999 11.2694L12.2585 11.8295H11.7413ZM14.0619 11.8295H13.228L12.3995 10.0349C12.3275 9.87912 12.1716 9.77933 11.9999 9.77933C11.8283 9.77933 11.6723 9.87912 11.6003 10.0349L10.7718 11.8295H9.93794L7.92984 9.5212C8.18072 9.2636 8.44692 9.03222 8.72583 8.8279L9.10472 9.28241C9.19177 9.38683 9.31691 9.44069 9.44298 9.44069C9.54236 9.44069 9.64229 9.40722 9.72456 9.33862C9.91125 9.18297 9.93642 8.90548 9.7808 8.71879L9.47998 8.35794C10.1317 8.0178 10.8336 7.81169 11.5598 7.75233V8.29436C11.5598 8.53741 11.7568 8.73445 11.9999 8.73445C12.2429 8.73445 12.44 8.53741 12.44 8.29436V7.75233C13.1662 7.81169 13.868 8.0178 14.5198 8.35794L14.219 8.71879C14.0633 8.90548 14.0885 9.183 14.2752 9.33862C14.3575 9.40722 14.4574 9.44069 14.5568 9.44069C14.6829 9.44069 14.808 9.3868 14.8951 9.28241L15.274 8.8279C15.5528 9.03222 15.8191 9.2636 16.0699 9.5212L14.0619 11.8295Z" fill="black"/>
<path id="Vector_2" d="M18.1722 6.06339C17.563 5.38758 16.6917 5 15.7819 5H8.21804C7.30821 5 6.437 5.38758 5.82778 6.06336C5.21857 6.73915 4.92312 7.64578 5.01712 8.55077L5.90677 17.112C6.0777 18.757 7.4538 19.9975 9.10769 19.9975H14.8923C16.5461 19.9975 17.9222 18.757 18.0932 17.112L18.9828 8.5508C19.0768 7.64581 18.7814 6.73918 18.1722 6.06339ZM18.1073 8.45979L17.2177 17.021C17.0935 18.2161 16.0938 19.1173 14.8923 19.1173H12.4401V16.4776C12.4401 16.2346 12.243 16.0375 12 16.0375C11.7569 16.0375 11.5599 16.2346 11.5599 16.4776V19.1173H9.10769C7.90616 19.1173 6.90643 18.2161 6.78224 17.021L5.89262 8.45979C5.82429 7.80231 6.03894 7.14369 6.48153 6.65271C6.92413 6.16177 7.55704 5.8802 8.21804 5.8802H15.7819C16.4429 5.8802 17.0758 6.16177 17.5184 6.65274C17.961 7.14369 18.1756 7.80234 18.1073 8.45979Z" fill="black"/>
</g>
</g>
</svg>
